<svg width="15" height="17" viewBox="0 0 15 17" fill="none" xmlns="http://www.w3.org/2000/svg">
<path d="M14.25 3C14.5 3 14.75 3.25 14.75 3.5V4C14.75 4.28125 14.5 4.5 14.25 4.5H13.75V14.5C13.75 15.625 12.8438 16.5 11.75 16.5H3.75C2.625 16.5 1.75 15.625 1.75 14.5V4.5H1.25C0.96875 4.5 0.75 4.28125 0.75 4V3.5C0.75 3.25 0.96875 3 1.25 3H3.8125L4.875 1.25C5.15625 0.78125 5.625 0.5 6.15625 0.5H9.3125C9.84375 0.5 10.3125 0.78125 10.5938 1.25L11.6562 3H14.25ZM6.09375 2.09375L5.5625 3H9.90625L9.375 2.09375C9.34375 2.0625 9.28125 2 9.21875 2H6.28125C6.1875 2 6.125 2.0625 6.09375 2.09375ZM11.75 15C12 15 12.25 14.7812 12.25 14.5V4.5H3.25V14.5C3.25 14.7812 3.46875 15 3.75 15H11.75ZM7.75 13.5C7.46875 13.5 7.25 13.2812 7.25 13V6.5C7.25 6.25 7.46875 6 7.75 6C8 6 8.25 6.25 8.25 6.5V13C8.25 13.2812 8 13.5 7.75 13.5ZM5.25 13.5C4.96875 13.5 4.75 13.2812 4.75 13V6.5C4.75 6.25 4.96875 6 5.25 6C5.5 6 5.75 6.25 5.75 6.5V13C5.75 13.2812 5.5 13.5 5.25 13.5ZM10.25 13.5C9.96875 13.5 9.75 13.2812 9.75 13V6.5C9.75 6.25 9.96875 6 10.25 6C10.5 6 10.75 6.25 10.75 6.5V13C10.75 13.2812 10.5 13.5 10.25 13.5Z" fill="#1D1D1D"/>
</svg>
