<svg width="17" height="17" viewBox="0 0 17 17" fill="none" xmlns="http://www.w3.org/2000/svg">
<path d="M14.9688 1.09375L16.1562 2.28125C16.9375 3.0625 16.9375 4.3125 16.1562 5.09375C13.4375 7.8125 7.65625 13.5938 6.125 15.125C5.84375 15.4062 5.53125 15.5938 5.15625 15.6562C3.96875 15.9375 1.34375 16.5 1.34375 16.5C1.3125 16.5 1.25 16.5 1.21875 16.5C0.9375 16.5 0.6875 16.2188 0.75 15.9062L1.59375 12.0938C1.6875 11.7188 1.875 11.375 2.15625 11.0938L12.1562 1.09375C12.5312 0.71875 13.0625 0.5 13.5625 0.5C14.0625 0.5 14.5938 0.71875 14.9688 1.09375ZM5.0625 14.0625L12.6562 6.5L10.75 4.59375L3.21875 12.1562C3.125 12.2188 3.09375 12.3125 3.0625 12.4062L2.5625 14.7188C3.34375 14.5312 4.25 14.3438 4.8125 14.2188C4.90625 14.1875 5 14.1562 5.0625 14.0625Z" fill="#27272A"/>
</svg>
