<svg width="17" height="17" viewBox="0 0 17 17" fill="none" xmlns="http://www.w3.org/2000/svg">
<path d="M16.5 15.25C16.8125 15.5312 16.8125 16 16.5 16.2812C16.375 16.4375 16.1875 16.5 16 16.5C15.7812 16.5 15.5938 16.4375 15.4688 16.2812L11.2812 12.0938C10.1562 13 8.75 13.5 7.25 13.5C3.65625 13.5 0.75 10.5938 0.75 7C0.75 3.4375 3.65625 0.5 7.25 0.5C10.8125 0.5 13.75 3.4375 13.75 7C13.75 8.53125 13.2188 9.9375 12.3125 11.0625L16.5 15.25ZM2.25 7C2.25 9.78125 4.46875 12 7.25 12C10 12 12.25 9.78125 12.25 7C12.25 4.25 10 2 7.25 2C4.46875 2 2.25 4.25 2.25 7Z" fill="#27272A"/>
</svg>
